<?xml version="1.0" encoding="utf-8"?>
<!-- Generator: Adobe Illustrator 16.0.0, SVG Export Plug-In . SVG Version: 6.00 Build 0)  -->
<!DOCTYPE svg PUBLIC "-//W3C//DTD SVG 1.1//EN" "http://www.w3.org/Graphics/SVG/1.1/DTD/svg11.dtd">
<svg version="1.1" id="Capa_1" xmlns="http://www.w3.org/2000/svg" xmlns:xlink="http://www.w3.org/1999/xlink" x="0px" y="0px"
	 width="595.279px" height="841.89px" viewBox="0 0 595.279 841.89" enable-background="new 0 0 595.279 841.89"
	 xml:space="preserve">
<path fill="#FFFFFF" d="M434.142,123.305H161.137C72.284,123.305,0,195.589,0,284.441v273.011
	C0,646.3,72.284,718.583,161.137,718.583h273.01c88.848,0,161.132-72.283,161.132-161.131V284.441
	C595.279,195.589,522.994,123.305,434.142,123.305z M560.381,557.453c0,69.604-56.63,126.234-126.239,126.234H161.137
	c-69.609,0-126.239-56.631-126.239-126.234V284.441c0-69.609,56.63-126.239,126.239-126.239h273.01
	c69.604,0,126.234,56.629,126.234,126.239V557.453z"/>
<path fill="#FFFFFF" d="M297.64,258.177c-89.752,0-162.768,73.016-162.768,162.767c0,89.752,73.016,162.768,162.768,162.768
	c89.751,0,162.767-73.016,162.767-162.768C460.406,331.193,387.391,258.177,297.64,258.177z M297.64,548.814
	c-70.505,0-127.87-57.361-127.87-127.87c0-70.504,57.365-127.869,127.87-127.869c70.508,0,127.869,57.365,127.869,127.869
	C425.509,491.453,368.148,548.814,297.64,548.814z"/>
<path fill="#FCFCFC" d="M464.299,200.372c-26.523,0-48.097,21.577-48.097,48.096c0,26.523,21.573,48.101,48.097,48.101
	c26.522,0,48.1-21.578,48.1-48.101S490.822,200.372,464.299,200.372z M464.299,261.666c-7.276,0-13.198-5.922-13.198-13.198
	c0-7.28,5.922-13.198,13.198-13.198c7.279,0,13.202,5.917,13.202,13.198C477.501,255.743,471.578,261.666,464.299,261.666z"/>
</svg>
